<svg xmlns="http://www.w3.org/2000/svg" version="1.1" xmlns:xlink="http://www.w3.org/1999/xlink" xmlns:svgjs="http://svgjs.dev/svgjs" width="2000" height="1500" viewBox="0 0 2000 1500"><rect width="2000" height="1500" fill="#f0eadc"></rect><g transform="matrix(0.75,0,0,0.75,249.090909090909,282.7536437246963)"><svg viewBox="0 0 396 247" data-background-color="#f0eadc" preserveAspectRatio="xMidYMid meet" height="1247" width="2000" xmlns="http://www.w3.org/2000/svg" xmlns:xlink="http://www.w3.org/1999/xlink"><g id="tight-bounds" transform="matrix(1,0,0,1,0.2400000000000091,-0.09999999999999432)"><svg viewBox="0 0 395.52 247.2" height="247.2" width="395.52"><g><svg></svg></g><g><svg viewBox="0 0 395.52 247.2" height="247.2" width="395.52"><g transform="matrix(1,0,0,1,75.54432,109.87071904140566)"><svg viewBox="0 0 244.43135999999998 27.458561917188646" height="27.458561917188646" width="244.43135999999998"><g><svg viewBox="0 0 288.9654836636172 32.46136921673143" height="27.458561917188646" width="244.43135999999998"><g><rect width="2.118234280823352" height="23.60613318582857" x="36.870773464408096" y="4.427618015451429" fill="#e8bf46" opacity="1" stroke-width="0" stroke="transparent" fill-opacity="1" class="rect-qz-0" data-fill-palette-color="primary" rx="1%" id="qz-0" data-palette-color="#e8bf46"></rect></g><g transform="matrix(1,0,0,1,44.53412366361719,4.4863397397942855)"><svg viewBox="0 0 244.43135999999998 23.488689737142856" height="23.488689737142856" width="244.43135999999998"><g id="textblocktransform"><svg viewBox="0 0 244.43135999999998 23.488689737142856" height="23.488689737142856" width="244.43135999999998" id="textblock"><g><svg viewBox="0 0 244.43135999999998 23.488689737142856" height="23.488689737142856" width="244.43135999999998"><g transform="matrix(1,0,0,1,0,0)"><svg width="244.43135999999998" viewBox="4 -37.95 519.66 50.45" height="23.488689737142856" data-palette-color="#e8bf46"><g class="wordmark-text-0" data-fill-palette-color="primary" id="text-0"><path d="M10.45 0Q7.4 0 5.7-1.63 4-3.25 4-6.1L4-6.1 4-29Q4-31.8 5.68-33.4 7.35-35 10.35-35L10.35-35 17.35-35Q22.55-35 26.43-32.83 30.3-30.65 32.4-26.7 34.5-22.75 34.5-17.45L34.5-17.45Q34.5-12.15 32.4-8.22 30.3-4.3 26.43-2.15 22.55 0 17.35 0L17.35 0 10.45 0ZM10.4-3.1L16.85-3.1Q23.45-3.1 27.08-6.85 30.7-10.6 30.7-17.45L30.7-17.45Q30.7-24.3 27.05-28.1 23.4-31.9 16.85-31.9L16.85-31.9 10.4-31.9Q9.2-31.9 8.47-31.1 7.75-30.3 7.75-29L7.75-29 7.75-6Q7.75-4.7 8.47-3.9 9.2-3.1 10.4-3.1L10.4-3.1ZM49.95 0.5Q45.05 0.5 42.27-1.65 39.5-3.8 39.5-7.6L39.5-7.6Q39.5-11.35 42.42-13.55 45.35-15.75 50.4-15.75L50.4-15.75Q53.35-15.75 55.62-14.95 57.9-14.15 59.15-12.8L59.15-12.8 59.15-16Q59.15-18.85 57.27-20.35 55.4-21.85 51.8-21.85L51.8-21.85Q47.15-21.85 43.75-19.65L43.75-19.65Q42.9-19.15 42.35-19.15L42.35-19.15Q41.85-19.15 41.35-19.55L41.35-19.55Q40.8-20 40.8-20.7L40.8-20.7Q40.8-21.45 41.45-21.95L41.45-21.95Q43.25-23.35 46.02-24.18 48.8-25 51.7-25L51.7-25Q57-25 59.92-22.6 62.85-20.2 62.85-15.85L62.85-15.85 62.85-1.45Q62.85 0.5 61.05 0.5L61.05 0.5Q60.25 0.5 59.75-0.03 59.25-0.55 59.25-1.4L59.25-1.4 59.25-3.2Q56.15 0.5 49.95 0.5L49.95 0.5ZM50.4-2.55Q54.3-2.55 56.75-4.03 59.2-5.5 59.2-7.85L59.2-7.85Q59.2-10.2 56.92-11.48 54.65-12.75 50.5-12.75L50.5-12.75Q47-12.75 45.1-11.43 43.2-10.1 43.2-7.6L43.2-7.6Q43.2-5.15 45.05-3.85 46.9-2.55 50.4-2.55L50.4-2.55ZM72.3-30.3Q71.2-30.3 70.42-31.03 69.65-31.75 69.65-32.8L69.65-32.8Q69.65-33.85 70.42-34.6 71.2-35.35 72.3-35.35L72.3-35.35Q73.4-35.35 74.22-34.58 75.05-33.8 75.05-32.8L75.05-32.8Q75.05-31.8 74.22-31.05 73.4-30.3 72.3-30.3L72.3-30.3ZM72.3 0.5Q71.45 0.5 70.97-0.03 70.5-0.55 70.5-1.5L70.5-1.5 70.5-23Q70.5-23.95 70.97-24.48 71.45-25 72.3-25L72.3-25Q73.2-25 73.67-24.48 74.15-23.95 74.15-23L74.15-23 74.15-1.5Q74.15-0.55 73.67-0.03 73.2 0.5 72.3 0.5L72.3 0.5ZM92.74 0.5Q89.24 0.5 86.14-0.83 83.04-2.15 81.24-4.5L81.24-4.5Q80.89-5 80.89-5.5L80.89-5.5Q80.89-6 81.17-6.38 81.44-6.75 81.89-6.95L81.89-6.95Q82.29-7.1 82.54-7.1L82.54-7.1Q82.99-7.1 83.32-6.88 83.64-6.65 84.09-6.15L84.09-6.15Q87.34-2.7 92.74-2.7L92.74-2.7Q95.34-2.7 96.94-3.6 98.54-4.5 98.54-6.1L98.54-6.1Q98.54-7.25 97.92-7.98 97.29-8.7 95.82-9.33 94.34-9.95 90.99-11.1L90.99-11.1Q87.74-12.2 85.89-13.2 84.04-14.2 83.14-15.48 82.24-16.75 82.24-18.6L82.24-18.6Q82.24-21.5 84.77-23.25 87.29-25 91.49-25L91.49-25Q94.59-25 97.24-23.93 99.89-22.85 101.24-21.05L101.24-21.05Q101.64-20.5 101.64-20L101.64-20Q101.64-19.25 100.84-18.8L100.84-18.8Q100.34-18.5 99.84-18.5L99.84-18.5Q98.99-18.5 98.24-19.25L98.24-19.25Q96.94-20.55 95.39-21.18 93.84-21.8 91.44-21.8L91.44-21.8Q88.79-21.8 87.39-20.95 85.99-20.1 85.99-18.55L85.99-18.55Q85.99-17.4 86.57-16.73 87.14-16.05 88.42-15.53 89.69-15 92.89-13.95L92.89-13.95Q96.49-12.75 98.47-11.68 100.44-10.6 101.32-9.3 102.19-8 102.19-6.1L102.19-6.1Q102.19-3.1 99.57-1.3 96.94 0.5 92.74 0.5L92.74 0.5ZM119.14 12.5Q115.44 12.5 112.54 11.4 109.64 10.3 108.29 8.4L108.29 8.4Q107.94 7.9 107.94 7.4L107.94 7.4Q107.94 6.6 108.74 6L108.74 6Q109.04 5.75 109.64 5.75L109.64 5.75Q110.49 5.75 111.24 6.55L111.24 6.55Q112.34 7.85 114.47 8.63 116.59 9.4 118.99 9.4L118.99 9.4Q123.49 9.4 126.12 6.7 128.74 4 128.74-0.6L128.74-0.6 128.74-4Q127.19-1.95 124.79-0.88 122.39 0.2 119.49 0.2L119.49 0.2Q113.39 0.2 109.97-3.28 106.54-6.75 106.54-12.95L106.54-12.95 106.54-23.15Q106.54-23.9 107.09-24.43 107.64-24.95 108.44-24.95L108.44-24.95Q109.24-24.95 109.77-24.43 110.29-23.9 110.29-23.15L110.29-23.15 110.29-12.95Q110.29-8.15 112.72-5.48 115.14-2.8 119.49-2.8L119.49-2.8Q123.79-2.8 126.14-5.35 128.49-7.9 128.49-12.6L128.49-12.6 128.49-22.65Q128.49-23.75 129.02-24.38 129.54-25 130.49-25L130.49-25Q131.39-25 131.92-24.38 132.44-23.75 132.44-22.65L132.44-22.65 132.44-0.85Q132.44 3.1 130.77 6.13 129.09 9.15 126.09 10.83 123.09 12.5 119.14 12.5L119.14 12.5Z" fill="#e8bf46" data-fill-palette-color="primary"></path><path d="M165.94 0.5Q160.74 0.5 156.81-1.73 152.89-3.95 150.74-8.03 148.59-12.1 148.59-17.45L148.59-17.45Q148.59-22.85 150.74-26.95 152.89-31.05 156.81-33.27 160.74-35.5 165.89-35.5L165.89-35.5Q170.19-35.5 173.81-34.05 177.44-32.6 179.49-30L179.49-30Q179.89-29.55 179.89-28.9L179.89-28.9Q179.89-28.1 179.19-27.6L179.19-27.6Q178.74-27.3 178.19-27.3L178.19-27.3Q177.24-27.3 176.59-28.05L176.59-28.05Q174.99-30.1 172.24-31.2 169.49-32.3 165.89-32.3L165.89-32.3Q161.74-32.3 158.69-30.5 155.64-28.7 154.01-25.35 152.39-22 152.39-17.45L152.39-17.45Q152.39-12.95 154.01-9.63 155.64-6.3 158.71-4.5 161.79-2.7 165.94-2.7L165.94-2.7Q169.79-2.7 172.66-3.83 175.54-4.95 177.19-6.95L177.19-6.95Q177.94-7.75 178.79-7.75L178.79-7.75Q179.39-7.75 179.79-7.4L179.79-7.4Q180.49-6.8 180.49-6.1L180.49-6.1Q180.49-5.5 180.04-4.95L180.04-4.95Q177.99-2.45 174.21-0.98 170.44 0.5 165.94 0.5L165.94 0.5ZM188.54 0.5Q187.69 0.5 187.21-0.03 186.74-0.55 186.74-1.5L186.74-1.5 186.74-35.95Q186.74-36.9 187.21-37.43 187.69-37.95 188.54-37.95L188.54-37.95Q189.39-37.95 189.89-37.43 190.39-36.9 190.39-35.95L190.39-35.95 190.39-20.05Q192.24-22.5 194.86-23.75 197.49-25 200.59-25L200.59-25Q205.34-25 207.91-22.35 210.49-19.7 210.49-14.75L210.49-14.75 210.49-1.5Q210.49-0.55 209.99-0.03 209.49 0.5 208.64 0.5L208.64 0.5Q207.74 0.5 207.28-0.03 206.84-0.55 206.84-1.5L206.84-1.5 206.84-14.75Q206.84-21.85 200.14-21.85L200.14-21.85Q195.74-21.85 193.06-19.25 190.39-16.65 190.39-12.35L190.39-12.35 190.39-1.5Q190.39-0.6 189.91-0.05 189.44 0.5 188.54 0.5L188.54 0.5ZM226.38 0.5Q221.48 0.5 218.71-1.65 215.93-3.8 215.93-7.6L215.93-7.6Q215.93-11.35 218.86-13.55 221.78-15.75 226.83-15.75L226.83-15.75Q229.78-15.75 232.06-14.95 234.33-14.15 235.58-12.8L235.58-12.8 235.58-16Q235.58-18.85 233.71-20.35 231.83-21.85 228.23-21.85L228.23-21.85Q223.58-21.85 220.18-19.65L220.18-19.65Q219.33-19.15 218.78-19.15L218.78-19.15Q218.28-19.15 217.78-19.55L217.78-19.55Q217.23-20 217.23-20.7L217.23-20.7Q217.23-21.45 217.88-21.95L217.88-21.95Q219.68-23.35 222.46-24.18 225.23-25 228.13-25L228.13-25Q233.43-25 236.36-22.6 239.28-20.2 239.28-15.85L239.28-15.85 239.28-1.45Q239.28 0.5 237.48 0.5L237.48 0.5Q236.68 0.5 236.18-0.03 235.68-0.55 235.68-1.4L235.68-1.4 235.68-3.2Q232.58 0.5 226.38 0.5L226.38 0.5ZM226.83-2.55Q230.73-2.55 233.18-4.03 235.63-5.5 235.63-7.85L235.63-7.85Q235.63-10.2 233.36-11.48 231.08-12.75 226.93-12.75L226.93-12.75Q223.43-12.75 221.53-11.43 219.63-10.1 219.63-7.6L219.63-7.6Q219.63-5.15 221.48-3.85 223.33-2.55 226.83-2.55L226.83-2.55ZM248.73-30.3Q247.63-30.3 246.86-31.03 246.08-31.75 246.08-32.8L246.08-32.8Q246.08-33.85 246.86-34.6 247.63-35.35 248.73-35.35L248.73-35.35Q249.83-35.35 250.66-34.58 251.48-33.8 251.48-32.8L251.48-32.8Q251.48-31.8 250.66-31.05 249.83-30.3 248.73-30.3L248.73-30.3ZM248.73 0.5Q247.88 0.5 247.41-0.03 246.93-0.55 246.93-1.5L246.93-1.5 246.93-23Q246.93-23.95 247.41-24.48 247.88-25 248.73-25L248.73-25Q249.63-25 250.11-24.48 250.58-23.95 250.58-23L250.58-23 250.58-1.5Q250.58-0.55 250.11-0.03 249.63 0.5 248.73 0.5L248.73 0.5ZM260.38 0.5Q259.53 0.5 259.05-0.03 258.58-0.55 258.58-1.5L258.58-1.5 258.58-23Q258.58-23.95 259.03-24.48 259.48-25 260.38-25L260.38-25Q261.23-25 261.7-24.48 262.18-23.95 262.18-23L262.18-23 262.18-20.05Q264.03-22.5 266.65-23.75 269.28-25 272.43-25L272.43-25Q277.18-25 279.75-22.35 282.33-19.7 282.33-14.75L282.33-14.75 282.33-1.5Q282.33-0.55 281.83-0.03 281.33 0.5 280.48 0.5L280.48 0.5Q279.58 0.5 279.13-0.03 278.68-0.55 278.68-1.5L278.68-1.5 278.68-14.75Q278.68-21.85 271.98-21.85L271.98-21.85Q267.58-21.85 264.9-19.25 262.23-16.65 262.23-12.35L262.23-12.35 262.23-1.5Q262.23-0.6 261.75-0.05 261.28 0.5 260.38 0.5L260.38 0.5Z" fill="#2ea673" data-fill-palette-color="secondary"></path><path d="M315.83 0.5Q310.63 0.5 306.7-1.73 302.78-3.95 300.63-8.03 298.48-12.1 298.48-17.45L298.48-17.45Q298.48-22.85 300.63-26.95 302.78-31.05 306.7-33.27 310.63-35.5 315.78-35.5L315.78-35.5Q320.08-35.5 323.7-34.05 327.33-32.6 329.38-30L329.38-30Q329.78-29.55 329.78-28.9L329.78-28.9Q329.78-28.1 329.08-27.6L329.08-27.6Q328.63-27.3 328.08-27.3L328.08-27.3Q327.13-27.3 326.48-28.05L326.48-28.05Q324.88-30.1 322.13-31.2 319.38-32.3 315.78-32.3L315.78-32.3Q311.63-32.3 308.58-30.5 305.53-28.7 303.9-25.35 302.28-22 302.28-17.45L302.28-17.45Q302.28-12.95 303.9-9.63 305.53-6.3 308.6-4.5 311.68-2.7 315.83-2.7L315.83-2.7Q319.68-2.7 322.55-3.83 325.43-4.95 327.08-6.95L327.08-6.95Q327.83-7.75 328.68-7.75L328.68-7.75Q329.28-7.75 329.68-7.4L329.68-7.4Q330.38-6.8 330.38-6.1L330.38-6.1Q330.38-5.5 329.93-4.95L329.93-4.95Q327.88-2.45 324.1-0.98 320.33 0.5 315.83 0.5L315.83 0.5ZM349.03 0.5Q344.68 0.5 341.58-1.25 338.48-3 336.9-5.93 335.33-8.85 335.33-12.25L335.33-12.25Q335.33-15.65 336.9-18.57 338.48-21.5 341.58-23.25 344.68-25 349.03-25L349.03-25Q353.38-25 356.45-23.25 359.53-21.5 361.1-18.57 362.67-15.65 362.67-12.25L362.67-12.25Q362.67-8.85 361.1-5.93 359.53-3 356.45-1.25 353.38 0.5 349.03 0.5L349.03 0.5ZM349.03-2.65Q353.53-2.65 356.25-5.2 358.98-7.75 358.98-12.25L358.98-12.25Q358.98-16.75 356.25-19.3 353.53-21.85 349.03-21.85L349.03-21.85Q344.48-21.85 341.75-19.3 339.03-16.75 339.03-12.25L339.03-12.25Q339.03-7.75 341.75-5.2 344.48-2.65 349.03-2.65L349.03-2.65ZM380.57 0.5Q376.57 0.5 373.52-1.07 370.47-2.65 368.82-5.55 367.17-8.45 367.17-12.3L367.17-12.3Q367.17-16.1 368.82-18.98 370.47-21.85 373.52-23.43 376.57-25 380.57-25L380.57-25Q384.32-25 387.07-23.95 389.82-22.9 391.42-20.85L391.42-20.85Q391.82-20.3 391.82-19.8L391.82-19.8Q391.82-19.05 391.07-18.45L391.07-18.45Q390.72-18.15 390.17-18.15L390.17-18.15Q389.32-18.15 388.57-18.9L388.57-18.9Q385.92-21.85 380.57-21.85L380.57-21.85Q375.92-21.85 373.4-19.38 370.87-16.9 370.87-12.3L370.87-12.3Q370.87-7.75 373.42-5.2 375.97-2.65 380.57-2.65L380.57-2.65Q383.12-2.65 385.27-3.43 387.42-4.2 388.82-5.65L388.82-5.65Q389.67-6.5 390.42-6.5L390.42-6.5Q390.87-6.5 391.42-6.1L391.42-6.1Q392.12-5.5 392.12-4.8L392.12-4.8Q392.12-4.15 391.57-3.7L391.57-3.7Q389.12-1.5 386.47-0.5 383.82 0.5 380.57 0.5L380.57 0.5ZM399.77 0.5Q398.92 0.5 398.45-0.03 397.97-0.55 397.97-1.5L397.97-1.5 397.97-35.95Q397.97-36.9 398.45-37.43 398.92-37.95 399.77-37.95L399.77-37.95Q400.62-37.95 401.12-37.43 401.62-36.9 401.62-35.95L401.62-35.95 401.62-13.55 418.22-24.75Q418.72-25.1 419.27-25.1L419.27-25.1Q420.12-25.1 420.52-24.4L420.52-24.4Q420.77-24.05 420.77-23.45L420.77-23.45Q420.77-22.55 419.97-22.05L419.97-22.05 411.02-16.1Q415.37-13.15 417.77-9.63 420.17-6.1 421.07-1.45L421.07-1.45Q421.22-0.65 420.77-0.08 420.32 0.5 419.47 0.5L419.47 0.5Q417.82 0.5 417.52-0.9L417.52-0.9Q416.47-5.7 414.45-8.53 412.42-11.35 408.07-14.15L408.07-14.15 401.62-9.8 401.62-1.5Q401.62-0.6 401.15-0.05 400.67 0.5 399.77 0.5L399.77 0.5ZM443.62-4.95Q444.17-4.5 444.17-3.9L444.17-3.9Q444.17-3.4 443.72-2.7L443.72-2.7Q442.67-1.25 440.82-0.38 438.97 0.5 437.02 0.5L437.02 0.5Q433.72 0.5 431.82-1.45 429.92-3.4 429.92-6.8L429.92-6.8 429.92-21.45 427.22-21.45Q425.22-21.45 425.22-23L425.22-23Q425.22-23.7 425.74-24.1 426.27-24.5 427.22-24.5L427.22-24.5 429.92-24.5 429.92-33.05Q429.92-34 430.39-34.52 430.87-35.05 431.77-35.05L431.77-35.05Q432.62-35.05 433.09-34.52 433.57-34 433.57-33.05L433.57-33.05 433.57-24.5 440.37-24.5Q441.27-24.5 441.79-24.13 442.32-23.75 442.32-23L442.32-23Q442.32-21.45 440.37-21.45L440.37-21.45 433.57-21.45 433.57-6.5Q433.57-2.65 437.17-2.65L437.17-2.65Q438.32-2.65 439.27-3.1 440.22-3.55 441.17-4.55L441.17-4.55Q441.92-5.35 442.62-5.35L442.62-5.35Q443.07-5.35 443.62-4.95L443.62-4.95ZM458.67 0.5Q453.77 0.5 450.99-1.65 448.21-3.8 448.21-7.6L448.21-7.6Q448.21-11.35 451.14-13.55 454.07-15.75 459.11-15.75L459.11-15.75Q462.07-15.75 464.34-14.95 466.61-14.15 467.86-12.8L467.86-12.8 467.86-16Q467.86-18.85 465.99-20.35 464.11-21.85 460.52-21.85L460.52-21.85Q455.86-21.85 452.46-19.65L452.46-19.65Q451.61-19.15 451.07-19.15L451.07-19.15Q450.57-19.15 450.07-19.55L450.07-19.55Q449.52-20 449.52-20.7L449.52-20.7Q449.52-21.45 450.17-21.95L450.17-21.95Q451.96-23.35 454.74-24.18 457.52-25 460.42-25L460.42-25Q465.71-25 468.64-22.6 471.57-20.2 471.57-15.85L471.57-15.85 471.57-1.45Q471.57 0.5 469.77 0.5L469.77 0.5Q468.96 0.5 468.46-0.03 467.96-0.55 467.96-1.4L467.96-1.4 467.96-3.2Q464.86 0.5 458.67 0.5L458.67 0.5ZM459.11-2.55Q463.02-2.55 465.46-4.03 467.92-5.5 467.92-7.85L467.92-7.85Q467.92-10.2 465.64-11.48 463.36-12.75 459.21-12.75L459.21-12.75Q455.71-12.75 453.82-11.43 451.92-10.1 451.92-7.6L451.92-7.6Q451.92-5.15 453.77-3.85 455.61-2.55 459.11-2.55L459.11-2.55ZM481.01-30.3Q479.91-30.3 479.14-31.03 478.36-31.75 478.36-32.8L478.36-32.8Q478.36-33.85 479.14-34.6 479.91-35.35 481.01-35.35L481.01-35.35Q482.11-35.35 482.94-34.58 483.76-33.8 483.76-32.8L483.76-32.8Q483.76-31.8 482.94-31.05 482.11-30.3 481.01-30.3L481.01-30.3ZM481.01 0.5Q480.16 0.5 479.69-0.03 479.21-0.55 479.21-1.5L479.21-1.5 479.21-23Q479.21-23.95 479.69-24.48 480.16-25 481.01-25L481.01-25Q481.91-25 482.39-24.48 482.86-23.95 482.86-23L482.86-23 482.86-1.5Q482.86-0.55 482.39-0.03 481.91 0.5 481.01 0.5L481.01 0.5ZM493.66 0.5Q492.81 0.5 492.34-0.03 491.86-0.55 491.86-1.5L491.86-1.5 491.86-35.95Q491.86-36.9 492.34-37.43 492.81-37.95 493.66-37.95L493.66-37.95Q494.51-37.95 495.01-37.43 495.51-36.9 495.51-35.95L495.51-35.95 495.51-1.5Q495.51-0.6 495.04-0.05 494.56 0.5 493.66 0.5L493.66 0.5ZM514.21 0.5Q510.71 0.5 507.61-0.83 504.51-2.15 502.71-4.5L502.71-4.5Q502.36-5 502.36-5.5L502.36-5.5Q502.36-6 502.63-6.38 502.91-6.75 503.36-6.95L503.36-6.95Q503.76-7.1 504.01-7.1L504.01-7.1Q504.46-7.1 504.78-6.88 505.11-6.65 505.56-6.15L505.56-6.15Q508.81-2.7 514.21-2.7L514.21-2.7Q516.81-2.7 518.41-3.6 520.01-4.5 520.01-6.1L520.01-6.1Q520.01-7.25 519.38-7.98 518.76-8.7 517.28-9.33 515.81-9.95 512.46-11.1L512.46-11.1Q509.21-12.2 507.36-13.2 505.51-14.2 504.61-15.48 503.71-16.75 503.71-18.6L503.71-18.6Q503.71-21.5 506.23-23.25 508.76-25 512.96-25L512.96-25Q516.06-25 518.71-23.93 521.36-22.85 522.71-21.05L522.71-21.05Q523.11-20.5 523.11-20L523.11-20Q523.11-19.25 522.31-18.8L522.31-18.8Q521.81-18.5 521.31-18.5L521.31-18.5Q520.46-18.5 519.71-19.25L519.71-19.25Q518.41-20.55 516.86-21.18 515.31-21.8 512.91-21.8L512.91-21.8Q510.26-21.8 508.86-20.95 507.46-20.1 507.46-18.55L507.46-18.55Q507.46-17.4 508.03-16.73 508.61-16.05 509.88-15.53 511.16-15 514.36-13.95L514.36-13.95Q517.96-12.75 519.93-11.68 521.91-10.6 522.78-9.3 523.66-8 523.66-6.1L523.66-6.1Q523.66-3.1 521.03-1.3 518.41 0.5 514.21 0.5L514.21 0.5Z" fill="#e8bf46" data-fill-palette-color="primary"></path></g></svg></g></svg></g></svg></g></svg></g><g><svg viewBox="0 0 31.32565754602236 32.46136921673143" height="32.46136921673143" width="31.32565754602236"><g><svg xmlns="http://www.w3.org/2000/svg" xmlns:xlink="http://www.w3.org/1999/xlink" version="1.1" x="0" y="0" viewBox="1.755630209340408 0.9109999999999996 46.489369790659595 48.17484182768204" enable-background="new 0 0 50 50" xml:space="preserve" height="32.46136921673143" width="31.32565754602236" class="icon-icon-0" data-fill-palette-color="accent" id="icon-0"><g fill="#e8bf46" data-fill-palette-color="accent"><g fill="#e8bf46" data-fill-palette-color="accent"><path fill="#e8bf46" d="M46.969 40.402c-5.086 4.664-11.689 7.076-18.587 6.779-6.9-0.297-13.271-3.266-17.938-8.355C5.776 33.74 3.367 27.139 3.666 20.24c0.295-6.898 3.262-13.271 8.352-17.938l-1.275-1.391c-5.46 5.01-8.642 11.844-8.961 19.248-0.319 7.402 2.265 14.48 7.276 19.943 5.006 5.457 11.842 8.639 19.242 8.957 7.401 0.322 14.485-2.262 19.945-7.271L46.969 40.402z" data-fill-palette-color="accent"></path></g><path fill="#e8bf46" d="M6.525 26.736c0.892 3.816 2.746 7.467 5.588 10.563 2.6 2.832 5.733 4.889 9.104 6.145l7.74-21.564L6.525 26.736z" data-fill-palette-color="accent"></path><path fill="#e8bf46" d="M31.405 23.438l-7.479 20.836c7.384 1.787 15.494-0.02 21.515-5.541L31.405 23.438z" data-fill-palette-color="accent"></path><path fill="#e8bf46" d="M13.544 3.973C7.79 9.252 5.254 16.734 6.049 23.947l21.547-4.664L13.544 3.973z" data-fill-palette-color="accent"></path><path fill="#e8bf46" d="M37.108 22.746c0.125-0.875-0.351-1.67-1.627-1.855-1.28-0.184-3.005 1.184-3.005 1.184s1.267 1.801 2.542 1.984C36.298 24.242 36.979 23.621 37.108 22.746z" data-fill-palette-color="accent"></path><path fill="#e8bf46" d="M35.743 14.998c-0.846-0.609-1.966-0.502-2.927 0.828-0.96 1.33-0.549 3.992-0.549 3.992s2.655-0.453 3.613-1.785C36.843 16.703 36.591 15.609 35.743 14.998z" data-fill-palette-color="accent"></path><path fill="#e8bf46" d="M28.806 13.639c-1.027 0.18-1.735 1.055-1.454 2.676 0.28 1.617 2.471 3.182 2.471 3.182s1.532-2.213 1.252-3.83S29.835 13.461 28.806 13.639z" data-fill-palette-color="accent"></path></g></svg></g></svg></g></svg></g></svg></g><g><path d="M0 123.6c0-68.262 55.338-123.6 123.6-123.6 62.815 0 114.685 46.858 122.564 107.525h-0.903c-7.873-60.172-59.341-106.63-121.661-106.629-67.768 0-122.704 54.937-122.704 122.704 0 67.768 54.937 122.704 122.704 122.704 62.319 0 113.788-46.458 121.661-106.629h0.903c-7.879 60.668-59.75 107.525-122.564 107.525-68.262 0-123.6-55.338-123.6-123.6z" fill="#2ea673" stroke="transparent" data-fill-palette-color="tertiary"></path></g></svg></g><defs></defs></svg><rect width="395.52" height="247.2" fill="none" stroke="none" visibility="hidden"></rect></g></svg></g></svg>